<svg viewBox="0 0 128 128" xmlns="http://www.w3.org/2000/svg" aria-hidden="true">
<radialGradient id="cf1" cx="63.52" cy="2521.55" r="56.95" gradientTransform="translate(0 -2458.67)" gradientUnits="userSpaceOnUse"><stop offset=".5" stop-color="#ffffff"/><stop offset=".76" stop-color="#fdfdfd"/><stop offset=".87" stop-color="#f6f6f6"/><stop offset=".96" stop-color="#e9e9e9"/><stop offset="1" stop-color="#e0e0e0"/></radialGradient>
<path d="M63.52 7c-30.09 0-58 20-58 55.83c0 36.09 27.87 55.93 58 55.93s58-19.35 58-55.93c-.13-36.24-28-55.83-58-55.83z" fill="url(#cf1)"/>
<radialGradient id="cf2" cx="99.468" cy="-62.305" r="20.97" gradientTransform="matrix(1 0 0 -.73 0 26.24)" gradientUnits="userSpaceOnUse"><stop offset="0" stop-color="#ed7770"/><stop offset=".9" stop-color="#ed7770" stop-opacity="0"/></radialGradient>
<ellipse cx="99.47" cy="71.77" rx="19.27" ry="14.77" fill="url(#cf2)"/>
<radialGradient id="cf3" cx="29.22" cy="-62.305" r="20.97" gradientTransform="matrix(1 0 0 -.73 0 26.24)" gradientUnits="userSpaceOnUse"><stop offset="0" stop-color="#ed7770"/><stop offset=".9" stop-color="#ed7770" stop-opacity="0"/></radialGradient>
<ellipse cx="29.22" cy="71.77" rx="19.27" ry="14.77" fill="url(#cf3)"/>
<radialGradient id="cf4" cx="65.94" cy="68.87" r="20" gradientTransform="matrix(1 0 0 -1 0 130)" gradientUnits="userSpaceOnUse"><stop offset="0" stop-color="#ff4900"/><stop offset="1" stop-color="#e30c00"/></radialGradient>
<circle cx="64" cy="66.94" r="14.62" fill="url(#cf4)"/>
<linearGradient id="cf5" gradientUnits="userSpaceOnUse" x1="25.134" y1="126.28" x2="25.134" y2="86.18" gradientTransform="matrix(1 0 0 -1 0 130)"><stop offset="0" stop-color="#ff4900"/><stop offset="1" stop-color="#e30c00"/></linearGradient>
<path d="M38.63 5.24a8.272 8.272 0 0 0-8 6c-6.4-4.76-15.44-3.43-20.2 2.96c-1.86 2.5-2.86 5.54-2.86 8.67c0 1.96.39 3.89 1.16 5.69c-4.9 2.54-6.82 8.58-4.28 13.48s8.58 6.82 13.48 4.28c3.31-1.72 5.4-5.14 5.4-8.87v-.18c7.45-.67 13.16-6.92 13.16-14.4c0-.45 0-.9-.07-1.34c.72.21 1.47.31 2.22.31c4.58 0 8.3-3.72 8.3-8.3s-3.72-8.3-8.3-8.3h-.01z" fill="url(#cf5)"/>
<linearGradient id="cf6" gradientUnits="userSpaceOnUse" x1="103.341" y1="126.28" x2="103.341" y2="86.18" gradientTransform="matrix(1 0 0 -1 0 130)"><stop offset="0" stop-color="#ff4900"/><stop offset="1" stop-color="#e30c00"/></linearGradient>
<path d="M119.71 28.56c3.14-7.34-.27-15.84-7.62-18.98c-1.8-.77-3.73-1.16-5.68-1.16c-3.11 0-6.13 1-8.62 2.87c-1.25-4.41-5.83-6.96-10.24-5.72s-6.96 5.83-5.72 10.24a8.286 8.286 0 0 0 7.95 6.03c.75 0 1.49-.11 2.21-.31c-.03.45-.03.89 0 1.34c0 7.48 5.71 13.73 13.16 14.4v.18c.01 5.52 4.49 10 10.01 9.99c5.52-.01 10-4.49 9.99-10.01c0-3.73-2.09-7.15-5.4-8.87h-.04z" fill="url(#cf6)"/>
<path d="M44 40.94c-4.19 0-8 3.54-8 9.42s3.81 9.41 8 9.41c4.2 0 8-3.54 8-9.41s-3.76-9.42-8-9.42z" fill="#422b0d"/>
<path d="M85.37 40.94c-4.19 0-8 3.54-8 9.42s3.81 9.41 8 9.41c4.19 0 8-3.54 8-9.41s-3.81-9.42-8-9.42z" fill="#422b0d"/>
<linearGradient id="cf7" gradientUnits="userSpaceOnUse" x1="36.742" y1="37.06" x2="91.758" y2="37.06" gradientTransform="matrix(1 0 0 -1 0 130)"><stop offset="0" stop-color="#ff4900"/><stop offset="1" stop-color="#e30c00"/></linearGradient>
<path d="M64.25 101.44c-12.74 0-21.82-6.61-24.55-10.77a4.58 4.58 0 0 1-.56-4.67c.53-.97 1.56-1.57 2.67-1.56c.41 0 .82.07 1.21.2a72.32 72.32 0 0 0 21.28 3.07c7.17.04 14.31-1 21.18-3.07c.39-.13.8-.19 1.21-.2c1.11-.01 2.14.59 2.67 1.56a4.58 4.58 0 0 1-.56 4.67c-2.73 4.16-11.8 10.77-24.55 10.77z" fill="#422b0d" stroke="url(#cf7)" stroke-width="4"/>
</svg>
